<svg width="175" height="208" viewBox="0 0 175 208" fill="none" xmlns="http://www.w3.org/2000/svg">
<path d="M110.606 28.6991L103.081 8.82734C100.403 1.75746 92.4957 -1.79299 85.432 0.901377L65.5582 8.48614C58.5048 11.1784 54.971 19.0816 57.6715 26.1329L65.2832 46.0192C67.9817 53.0704 64.4498 60.9736 57.3965 63.6659L37.4441 71.2817C30.3949 73.972 26.861 81.8669 29.5512 88.9161L37.1546 108.835C39.8448 115.885 47.7398 119.419 54.789 116.728L74.7083 109.125C81.7575 106.435 85.2914 98.5397 82.6012 91.4905L75.0392 71.6787C72.3551 64.6461 75.8663 56.7677 82.8886 54.0588L102.783 46.3914C109.841 43.6722 117.764 47.202 120.461 54.2677L128.048 74.1457C130.738 81.1949 138.633 84.7288 145.682 82.0385L165.601 74.4352C172.651 71.7449 176.185 63.85 173.494 56.8008L165.891 36.8815C163.201 29.8323 155.306 26.2984 148.257 28.9886L128.25 36.623C121.191 39.3215 113.281 35.769 110.606 28.6991Z" fill="white" fill-opacity="0.05"/>
<path d="M67.5764 188.558L71.3171 198.434C73.9949 205.504 81.9023 209.054 88.9659 206.36L108.84 198.775C115.893 196.083 119.427 188.18 116.726 181.129L112.928 171.207C108.122 158.653 114.41 144.582 126.97 139.789L136.952 135.98C144.001 133.289 147.535 125.395 144.845 118.345L137.241 98.426C134.551 91.3768 126.656 87.8429 119.607 90.5332L99.6876 98.1365C92.6384 100.827 89.1045 108.722 91.7947 115.771L99.3567 135.583C102.041 142.615 98.5296 150.494 91.5073 153.203L71.6128 160.87C64.5553 163.589 56.6314 160.06 53.935 152.994L46.3481 133.116C43.6579 126.067 35.763 122.533 28.7138 125.223L8.79445 132.826C1.74525 135.517 -1.78867 143.411 0.901565 150.461L8.50495 170.38C11.1952 177.429 19.0901 180.963 26.1393 178.273L36.1579 174.449C48.7303 169.648 62.8101 175.973 67.5764 188.558Z" fill="white" fill-opacity="0.05"/>
</svg>
