<svg width="327" height="153" viewBox="0 0 327 153" fill="none" xmlns="http://www.w3.org/2000/svg">
<rect width="327" height="153" rx="8" fill="#0073D1"/>
<path d="M183.435 52.64V49.312H185.323V53.312C185.323 54.976 184.299 56 182.443 56H175.275C172.843 56 171.339 54.704 171.339 52.784C171.339 51.984 171.515 51.136 171.851 50.224L173.515 50.656C173.307 51.424 173.211 52 173.211 52.4C173.211 53.632 174.075 54.304 175.563 54.304H181.883C182.987 54.304 183.435 53.856 183.435 52.64ZM177.515 57.6C178.107 56.944 179.339 57.408 179.243 58.336C179.243 58.912 178.843 59.344 178.251 59.344C177.659 59.344 177.227 58.912 177.227 58.336C177.227 58.032 177.323 57.792 177.515 57.6ZM189.52 47.344C188.96 47.968 187.68 47.504 187.776 46.608C187.68 45.696 188.96 45.28 189.52 45.872C189.888 46.256 189.888 46.96 189.52 47.344ZM193.088 54.304H194.288C194.496 54.304 194.608 54.608 194.608 55.2C194.608 55.728 194.496 56 194.288 56H186.368V54.304H191.216V54.272C191.216 53.536 190.928 52.816 190.352 52.096C189.76 51.376 189.088 50.784 188.336 50.32L189.472 48.8C190.768 49.632 191.68 50.48 192.208 51.36C192.736 52.24 193.024 53.232 193.088 54.304ZM200.614 56H194.006V54.304H198.966C199.206 52.896 198.934 50.88 196.438 50.88C195.958 50.88 195.414 50.96 194.822 51.104L194.406 49.504C195.078 49.264 195.814 49.136 196.598 49.136C199.142 49.136 200.598 50.416 200.854 52.448C200.966 53.456 200.886 54.64 200.614 56ZM197.958 59.056C197.398 59.68 196.118 59.216 196.214 58.336C196.214 57.744 196.646 57.296 197.238 57.296C197.83 57.296 198.23 57.744 198.23 58.336C198.23 58.624 198.134 58.864 197.958 59.056ZM204.539 56H202.651V43.904H204.539V56ZM207.203 58.928L207.091 57.232C209.475 57.408 210.819 56.88 210.803 55.6C210.371 55.744 209.843 55.824 209.251 55.824C207.187 55.824 205.875 54.64 205.875 52.64C205.875 51.664 206.195 50.848 206.851 50.16C207.491 49.472 208.355 49.136 209.427 49.136C211.603 49.136 212.707 50.496 212.707 52.4V55.488C212.707 57.808 211.203 58.96 208.211 58.96C207.779 58.96 207.443 58.944 207.203 58.928ZM209.539 54.08C209.939 54.08 210.371 54.032 210.819 53.92V52.816C210.819 51.52 210.323 50.88 209.331 50.88C208.435 50.88 207.779 51.552 207.779 52.528C207.779 53.552 208.403 54.08 209.539 54.08ZM231.962 54.304C232.17 54.304 232.282 54.608 232.282 55.2C232.282 55.728 232.17 56 231.962 56C230.826 56 230.058 55.68 229.626 55.056C229.114 55.68 228.17 56 226.778 56H222.042C219.61 56 218.106 54.704 218.106 52.784C218.106 51.984 218.282 51.136 218.618 50.224L220.282 50.656C220.074 51.424 219.978 52 219.978 52.4C219.978 53.632 220.842 54.304 222.33 54.304H226.778C228.042 54.304 228.346 53.888 228.346 52.432V43.904H230.234V52.688H230.25C230.25 53.76 230.826 54.304 231.962 54.304ZM224.586 49.888H225.93V50.896H222.682V49.888H223.37C223.242 49.648 223.178 49.392 223.178 49.136C223.178 48.304 223.85 47.632 224.922 47.632C225.178 47.632 225.45 47.68 225.754 47.76L225.61 48.752C225.418 48.704 225.226 48.672 225.034 48.672C224.57 48.672 224.346 48.864 224.346 49.264C224.346 49.52 224.426 49.728 224.586 49.888ZM235.205 54.304H238.805V56H231.669V54.304H233.157C232.837 53.76 232.677 53.12 232.677 52.384C232.677 50.448 234.085 49.136 236.501 49.136C237.125 49.136 237.765 49.216 238.421 49.392L238.069 51.056C237.557 50.944 237.077 50.88 236.645 50.88C235.317 50.88 234.581 51.488 234.581 52.528C234.581 53.136 234.789 53.728 235.205 54.304ZM241.559 58.928L241.447 57.232C243.831 57.408 245.175 56.88 245.159 55.6C244.727 55.744 244.199 55.824 243.607 55.824C241.543 55.824 240.231 54.64 240.231 52.64C240.231 51.664 240.551 50.848 241.207 50.16C241.847 49.472 242.711 49.136 243.783 49.136C245.959 49.136 247.063 50.496 247.063 52.4V55.488C247.063 57.808 245.559 58.96 242.567 58.96C242.135 58.96 241.799 58.944 241.559 58.928ZM243.895 54.08C244.295 54.08 244.727 54.032 245.175 53.92V52.816C245.175 51.52 244.679 50.88 243.687 50.88C242.791 50.88 242.135 51.552 242.135 52.528C242.135 53.552 242.759 54.08 243.895 54.08ZM251.422 54.304H253.054C253.262 54.304 253.374 54.608 253.374 55.2C253.374 55.728 253.262 56 253.054 56H251.342C251.038 57.808 249.854 58.784 247.774 58.928L247.486 57.296C248.974 57.088 249.534 56.592 249.534 55.264V49.312H251.422V54.304ZM259.9 46.56C259.324 46.56 258.892 46.112 258.892 45.52C258.892 44.944 259.324 44.496 259.9 44.496C260.476 44.496 260.908 44.944 260.908 45.52C260.908 46.112 260.492 46.56 259.9 46.56ZM258.54 48.736C257.964 48.736 257.516 48.288 257.516 47.696C257.516 47.12 257.964 46.688 258.54 46.688C259.132 46.688 259.548 47.104 259.548 47.696C259.548 48.288 259.132 48.736 258.54 48.736ZM260.428 48.432C259.788 47.84 260.22 46.608 261.164 46.688C261.74 46.688 262.156 47.12 262.156 47.696C262.156 48.288 261.724 48.736 261.164 48.736C260.86 48.736 260.62 48.64 260.428 48.432ZM267.02 54.304C267.228 54.304 267.34 54.608 267.34 55.2C267.34 55.728 267.228 56 267.02 56C265.916 56 265.132 55.68 264.684 55.056C264.156 55.68 263.356 56 262.316 56C261.404 56 260.684 55.76 260.156 55.264C259.596 55.76 258.828 56 257.852 56C256.78 56 256.028 55.744 255.58 55.248C255.084 55.744 254.252 56 253.116 56H252.764V54.304H253.116C254.124 54.304 254.476 53.888 254.476 52.72V50.48H256.364V53.232C256.364 53.952 256.78 54.304 257.612 54.304C258.588 54.304 258.94 53.888 258.94 52.72V50.48H260.828V53.232C260.828 53.952 261.26 54.304 262.108 54.304C263.132 54.304 263.42 53.84 263.42 52.672V49.312H265.308V52.688C265.308 53.76 265.884 54.304 267.02 54.304ZM268.792 50.08C269.496 49.456 270.392 49.136 271.48 49.136C272.568 49.136 273.416 49.456 274.024 50.112C274.616 50.768 274.92 51.568 274.92 52.512C274.92 54.144 274.12 56 270.952 56H266.728V54.304H268.216C267.896 53.808 267.736 53.2 267.736 52.512C267.736 51.52 268.088 50.704 268.792 50.08ZM270.184 54.304H271.16C272.392 54.304 273.016 53.728 273.016 52.576C273.016 51.552 272.376 50.88 271.368 50.88C270.344 50.88 269.64 51.536 269.64 52.688C269.64 53.248 269.816 53.792 270.184 54.304ZM283.322 50.08C284.01 49.456 284.906 49.136 285.994 49.136C287.082 49.136 287.93 49.472 288.538 50.128C289.146 50.784 289.45 51.584 289.45 52.512C289.45 54.16 288.634 56 285.466 56H283.178C282.298 56 281.866 56.432 281.866 57.296V60.16H280.026V57.056C280.026 55.392 281.002 54.384 282.714 54.304C282.41 53.776 282.266 53.184 282.266 52.512C282.266 51.52 282.618 50.704 283.322 50.08ZM284.682 54.304H285.722C286.938 54.304 287.546 53.728 287.546 52.576C287.546 51.552 286.906 50.88 285.898 50.88C284.938 50.88 284.17 51.488 284.17 52.688C284.17 53.232 284.346 53.776 284.682 54.304ZM293.925 46.216L294.533 45.976C294.709 46.344 294.805 46.696 294.805 47.032C294.805 47.72 294.389 48.152 293.797 48.152C293.509 48.152 293.237 48.056 292.981 47.864C292.773 48.152 292.485 48.296 292.101 48.296C291.397 48.296 290.965 47.88 290.965 47.192C290.965 46.904 291.029 46.616 291.141 46.344L291.701 46.472C291.653 46.616 291.637 46.744 291.637 46.888C291.637 47.24 291.797 47.416 292.117 47.416C292.389 47.416 292.533 47.24 292.533 46.872C292.533 46.76 292.533 46.68 292.517 46.616L293.093 46.488C293.141 46.728 293.173 46.92 293.173 47.096V47.128C293.317 47.24 293.461 47.288 293.637 47.288C293.909 47.288 294.037 47.144 294.037 46.84C294.037 46.648 294.005 46.44 293.925 46.216ZM296.894 54.304H298.094C298.302 54.304 298.414 54.608 298.414 55.2C298.414 55.728 298.302 56 298.094 56H290.174V54.304H295.022V54.272C295.022 53.536 294.734 52.816 294.158 52.096C293.566 51.376 292.894 50.784 292.142 50.32L293.278 48.8C294.574 49.632 295.486 50.48 296.014 51.36C296.542 52.24 296.83 53.232 296.894 54.304ZM302.133 46.976C301.557 47.632 300.325 47.152 300.389 46.256C300.389 45.68 300.837 45.248 301.413 45.248C302.005 45.248 302.421 45.664 302.421 46.256C302.421 46.544 302.325 46.784 302.133 46.976ZM304.037 47.28C303.445 47.28 302.997 46.832 302.997 46.256C302.997 45.664 303.413 45.248 304.037 45.248C304.613 45.248 305.029 45.68 305.029 46.256C305.029 46.832 304.597 47.28 304.037 47.28ZM302.741 49.136C305.381 49.136 306.213 51.152 306.213 52.688C306.213 53.744 306.005 54.848 305.573 56H297.812V54.304H299.349C299.093 53.84 298.965 53.312 298.965 52.704C298.965 51.664 299.301 50.816 299.989 50.144C300.677 49.472 301.589 49.136 302.741 49.136ZM301.333 54.304H304.133C304.261 53.792 304.325 53.312 304.325 52.864C304.325 51.696 303.797 50.88 302.661 50.88C301.525 50.88 300.869 51.616 300.869 52.688C300.869 53.216 301.029 53.744 301.333 54.304ZM151.236 79.304H152.324C152.532 79.304 152.644 79.608 152.644 80.2C152.644 80.728 152.532 81 152.324 81H150.372C149.684 81.688 148.676 82.024 147.332 82.024H146.004C145.572 81.72 145.22 81.368 144.948 81H144.244C143.364 81 142.932 81.432 142.932 82.296V85.16H141.092V82.056C141.092 80.312 142.164 79.304 144.004 79.304H144.18C144.132 79.096 144.116 78.84 144.116 78.536C144.116 77.464 144.468 76.6 145.172 75.912C145.876 75.24 146.788 74.904 147.892 74.904C148.98 74.904 149.828 75.24 150.42 75.912C151.012 76.584 151.3 77.448 151.3 78.488C151.3 78.808 151.284 79.08 151.236 79.304ZM146.644 80.328H147.476C148.772 80.328 149.412 79.512 149.412 78.408C149.412 77.384 148.804 76.648 147.764 76.648C146.724 76.648 146.004 77.416 146.004 78.584C146.004 79.24 146.212 79.832 146.644 80.328ZM155.581 79.304H159.181V81H152.045V79.304H153.533C153.213 78.76 153.053 78.12 153.053 77.384C153.053 75.448 154.461 74.136 156.877 74.136C157.501 74.136 158.141 74.216 158.797 74.392L158.445 76.056C157.933 75.944 157.453 75.88 157.021 75.88C155.693 75.88 154.957 76.488 154.957 77.528C154.957 78.136 155.165 78.728 155.581 79.304ZM167.039 79.304H168.239C168.447 79.304 168.559 79.608 168.559 80.2C168.559 80.728 168.447 81 168.239 81H160.319V79.304H165.167V79.272C165.167 78.536 164.879 77.816 164.303 77.096C163.711 76.376 163.039 75.784 162.287 75.32L163.423 73.8C164.719 74.632 165.631 75.48 166.159 76.36C166.687 77.24 166.975 78.232 167.039 79.304ZM167.957 81V79.304C169.189 79.304 169.573 78.888 169.573 77.432V74.312H171.461V77.688C171.461 80.12 170.389 81 167.957 81ZM170.613 84.056C170.053 84.68 168.773 84.216 168.869 83.336C168.869 82.744 169.301 82.296 169.893 82.296C170.485 82.296 170.885 82.744 170.885 83.336C170.885 83.624 170.789 83.864 170.613 84.056ZM182.161 74.168C181.601 74.792 180.321 74.328 180.417 73.432C180.321 72.52 181.601 72.104 182.161 72.696C182.529 73.08 182.529 73.784 182.161 74.168ZM185.729 79.304H187.281C187.489 79.304 187.601 79.608 187.601 80.2C187.601 80.728 187.489 81 187.281 81H185.601C185.153 82.856 183.537 83.8 181.249 83.8C179.825 83.8 178.737 83.416 177.985 82.664C177.233 81.896 176.849 80.984 176.849 79.912C176.849 79 177.089 78.024 177.569 76.952L179.217 77.528C178.913 78.328 178.753 79.032 178.753 79.656C178.753 81.208 179.697 82.056 181.297 82.056C182.961 82.056 183.841 81.288 183.841 79.352V75.48H185.729V79.304ZM192.558 79.304C192.766 79.304 192.878 79.608 192.878 80.2C192.878 80.728 192.766 81 192.558 81C191.422 81 190.638 80.68 190.206 80.04C189.678 80.68 188.718 81 187.326 81H186.99V79.304H187.31C188.59 79.304 188.958 78.856 188.958 77.432V74.312H190.846V77.688C190.846 78.76 191.422 79.304 192.558 79.304ZM188.318 82.296C188.91 82.296 189.326 82.744 189.326 83.336C189.326 83.912 188.91 84.344 188.318 84.344C187.742 84.344 187.294 83.912 187.294 83.336C187.294 82.744 187.742 82.296 188.318 82.296ZM190.942 82.296C191.502 82.296 191.934 82.744 191.934 83.336C191.934 83.912 191.502 84.344 190.942 84.344C190.35 84.344 189.902 83.912 189.902 83.336C189.902 82.744 190.35 82.296 190.942 82.296ZM200.394 79.304H201.498C201.706 79.304 201.818 79.608 201.818 80.2C201.818 80.728 201.706 81 201.498 81H199.498C198.794 81.688 197.802 82.024 196.506 82.024H195.162C194.73 81.72 194.378 81.368 194.106 81H192.266V79.304H193.338C193.29 78.984 193.274 78.728 193.274 78.536C193.274 77.464 193.626 76.6 194.33 75.912C195.034 75.24 195.946 74.904 197.05 74.904C198.138 74.904 198.986 75.24 199.578 75.912C200.17 76.584 200.474 77.448 200.474 78.488C200.474 78.744 200.442 79.016 200.394 79.304ZM195.754 80.328H196.634C197.962 80.328 198.586 79.512 198.586 78.408C198.586 77.384 197.978 76.648 196.938 76.648C195.85 76.648 195.162 77.384 195.162 78.584C195.162 79.224 195.354 79.8 195.754 80.328ZM203.342 72.152C202.766 72.808 201.534 72.328 201.598 71.432C201.598 70.856 202.046 70.424 202.622 70.424C203.214 70.424 203.63 70.84 203.63 71.432C203.63 71.72 203.534 71.96 203.342 72.152ZM205.246 72.456C204.654 72.456 204.206 72.008 204.206 71.432C204.206 70.84 204.622 70.424 205.246 70.424C205.806 70.424 206.238 70.84 206.238 71.432C206.238 72.008 205.806 72.456 205.246 72.456ZM206.782 79.304C206.99 79.304 207.102 79.608 207.102 80.2C207.102 80.728 206.99 81 206.782 81C205.646 81 204.862 80.68 204.43 80.04C203.902 80.68 202.942 81 201.55 81H201.214V79.304H201.534C202.814 79.304 203.182 78.856 203.182 77.432V74.312H205.07V77.688C205.07 78.76 205.646 79.304 206.782 79.304ZM213.371 79.304H214.667C214.875 79.304 214.987 79.608 214.987 80.2C214.987 80.728 214.875 81 214.667 81H213.547C213.835 81.496 213.979 81.976 213.979 82.408C213.979 83.88 212.811 84.84 210.843 84.84C208.459 84.84 207.435 83.736 207.435 81.64V81H206.491V79.304H207.435V78.056C207.435 75.752 208.619 74.216 210.747 74.216C213.115 74.216 213.899 76.072 213.899 77.416C213.899 78.072 213.723 78.712 213.371 79.304ZM209.323 77.72V79.352H210.203C211.291 79.352 212.011 78.632 212.011 77.48C212.011 76.6 211.531 75.96 210.683 75.96C209.835 75.96 209.323 76.584 209.323 77.72ZM210.795 83.096C211.643 83.096 212.075 82.76 212.075 82.072C212.075 81.704 211.947 81.352 211.707 81H209.323V81.48C209.323 82.584 209.755 83.096 210.795 83.096ZM222.504 79.304H223.608C223.816 79.304 223.928 79.608 223.928 80.2C223.928 80.728 223.816 81 223.608 81H221.608C220.904 81.688 219.912 82.024 218.616 82.024H217.272C216.84 81.72 216.488 81.368 216.216 81H214.376V79.304H215.448C215.4 78.984 215.384 78.728 215.384 78.536C215.384 77.464 215.736 76.6 216.44 75.912C217.144 75.24 218.056 74.904 219.16 74.904C220.248 74.904 221.096 75.24 221.688 75.912C222.28 76.584 222.584 77.448 222.584 78.488C222.584 78.744 222.552 79.016 222.504 79.304ZM217.864 80.328H218.744C220.072 80.328 220.696 79.512 220.696 78.408C220.696 77.384 220.088 76.648 219.048 76.648C217.96 76.648 217.272 77.384 217.272 78.584C217.272 79.224 217.464 79.8 217.864 80.328ZM223.324 81V79.304C224.588 79.304 224.892 78.888 224.892 77.432V68.904H226.78V77.832C226.78 80.152 225.708 81 223.324 81ZM230.498 81H228.61V68.904H230.498V81ZM241.21 74.168C240.65 74.792 239.37 74.328 239.466 73.432C239.37 72.52 240.65 72.104 241.21 72.696C241.578 73.08 241.578 73.784 241.21 74.168ZM244.778 79.304H246.33C246.538 79.304 246.65 79.608 246.65 80.2C246.65 80.728 246.538 81 246.33 81H244.65C244.202 82.856 242.586 83.8 240.298 83.8C238.874 83.8 237.786 83.416 237.034 82.664C236.282 81.896 235.898 80.984 235.898 79.912C235.898 79 236.138 78.024 236.618 76.952L238.266 77.528C237.962 78.328 237.802 79.032 237.802 79.656C237.802 81.208 238.746 82.056 240.346 82.056C242.01 82.056 242.89 81.288 242.89 79.352V75.48H244.778V79.304ZM246.375 81H246.039V79.304H246.359C247.639 79.304 248.007 78.856 248.007 77.432V74.312H249.895V77.688C249.895 80.104 248.855 81 246.375 81ZM247.047 84.344C246.471 84.344 246.023 83.912 246.023 83.336C246.023 82.744 246.471 82.296 247.047 82.296C247.639 82.296 248.055 82.744 248.055 83.336C248.055 83.912 247.639 84.344 247.047 84.344ZM249.671 84.344C249.079 84.344 248.631 83.912 248.631 83.336C248.631 82.744 249.079 82.296 249.671 82.296C250.231 82.296 250.663 82.744 250.663 83.336C250.663 83.912 250.231 84.344 249.671 84.344ZM255.015 79.304H256.647C256.855 79.304 256.967 79.608 256.967 80.2C256.967 80.728 256.855 81 256.647 81H254.935C254.631 82.808 253.447 83.784 251.367 83.928L251.079 82.296C252.567 82.088 253.127 81.592 253.127 80.264V74.312H255.015V79.304ZM264.486 79.304H265.59C265.798 79.304 265.91 79.608 265.91 80.2C265.91 80.728 265.798 81 265.59 81H263.59C262.886 81.688 261.894 82.024 260.598 82.024H259.254C258.822 81.72 258.47 81.368 258.198 81H256.358V79.304H257.43C257.382 78.984 257.366 78.728 257.366 78.536C257.366 77.464 257.718 76.6 258.422 75.912C259.126 75.24 260.038 74.904 261.142 74.904C262.23 74.904 263.078 75.24 263.67 75.912C264.262 76.584 264.566 77.448 264.566 78.488C264.566 78.744 264.534 79.016 264.486 79.304ZM259.846 80.328H260.726C262.054 80.328 262.678 79.512 262.678 78.408C262.678 77.384 262.07 76.648 261.03 76.648C259.942 76.648 259.254 77.384 259.254 78.584C259.254 79.224 259.446 79.8 259.846 80.328ZM268.074 70.392C267.498 70.392 267.066 69.944 267.066 69.352C267.066 68.776 267.498 68.328 268.074 68.328C268.65 68.328 269.082 68.776 269.082 69.352C269.082 69.944 268.666 70.392 268.074 70.392ZM266.714 72.568C266.138 72.568 265.69 72.12 265.69 71.528C265.69 70.952 266.138 70.52 266.714 70.52C267.306 70.52 267.722 70.936 267.722 71.528C267.722 72.12 267.306 72.568 266.714 72.568ZM268.602 72.264C267.962 71.672 268.394 70.44 269.338 70.52C269.898 70.52 270.33 70.936 270.33 71.528C270.33 72.12 269.898 72.568 269.338 72.568C269.034 72.568 268.794 72.472 268.602 72.264ZM270.874 79.304C271.082 79.304 271.194 79.608 271.194 80.2C271.194 80.728 271.082 81 270.874 81C269.738 81 268.954 80.68 268.522 80.04C267.994 80.68 267.034 81 265.642 81H265.306V79.304H265.626C266.906 79.304 267.274 78.856 267.274 77.432V74.312H269.162V77.688C269.162 78.76 269.738 79.304 270.874 79.304ZM272.71 72.152C272.134 72.808 270.902 72.328 270.966 71.432C270.966 70.856 271.414 70.424 271.99 70.424C272.582 70.424 272.998 70.84 272.998 71.432C272.998 71.72 272.902 71.96 272.71 72.152ZM274.614 72.456C274.022 72.456 273.574 72.008 273.574 71.432C273.574 70.84 273.99 70.424 274.614 70.424C275.174 70.424 275.606 70.84 275.606 71.432C275.606 72.008 275.174 72.456 274.614 72.456ZM276.15 79.304C276.358 79.304 276.47 79.608 276.47 80.2C276.47 80.728 276.358 81 276.15 81C275.014 81 274.23 80.68 273.798 80.04C273.27 80.68 272.31 81 270.918 81H270.582V79.304H270.902C272.182 79.304 272.55 78.856 272.55 77.432V74.312H274.438V77.688C274.438 78.76 275.014 79.304 276.15 79.304ZM290.114 79.304C290.322 79.304 290.434 79.608 290.434 80.2C290.434 80.728 290.322 81 290.114 81C289.01 81 288.226 80.68 287.778 80.056C287.25 80.68 286.45 81 285.41 81C284.498 81 283.778 80.76 283.25 80.264C282.69 80.76 281.922 81 280.946 81C279.874 81 279.122 80.744 278.674 80.248C278.178 80.744 277.346 81 276.21 81H275.858V79.304H276.21C277.218 79.304 277.57 78.888 277.57 77.72V75.48H279.458V78.232C279.458 78.952 279.874 79.304 280.706 79.304C281.682 79.304 282.034 78.888 282.034 77.72V75.48H283.922V78.232C283.922 78.952 284.354 79.304 285.202 79.304C286.226 79.304 286.514 78.84 286.514 77.672V74.312H288.402V77.688C288.402 78.76 288.978 79.304 290.114 79.304ZM297.95 79.304H299.054C299.262 79.304 299.374 79.608 299.374 80.2C299.374 80.728 299.262 81 299.054 81H297.054C296.35 81.688 295.358 82.024 294.062 82.024H292.718C292.286 81.72 291.934 81.368 291.662 81H289.822V79.304H290.894C290.846 78.984 290.83 78.728 290.83 78.536C290.83 77.464 291.182 76.6 291.886 75.912C292.59 75.24 293.502 74.904 294.606 74.904C295.694 74.904 296.542 75.24 297.134 75.912C297.726 76.584 298.03 77.448 298.03 78.488C298.03 78.744 297.998 79.016 297.95 79.304ZM293.31 80.328H294.19C295.518 80.328 296.142 79.512 296.142 78.408C296.142 77.384 295.534 76.648 294.494 76.648C293.406 76.648 292.718 77.384 292.718 78.584C292.718 79.224 292.91 79.8 293.31 80.328ZM298.771 81V79.304C300.035 79.304 300.339 78.888 300.339 77.432V68.904H302.227V77.832C302.227 80.152 301.155 81 298.771 81ZM305.944 81H304.056V68.904H305.944V81ZM201.759 103.632C202.447 103.632 203.039 104.16 203.039 104.848C203.039 105.552 202.463 106.096 201.759 106.096C201.071 106.096 200.479 105.568 200.479 104.88C200.479 104.176 201.055 103.632 201.759 103.632ZM208.276 97.152C207.7 97.808 206.468 97.328 206.532 96.432C206.532 95.856 206.98 95.424 207.556 95.424C208.148 95.424 208.564 95.84 208.564 96.432C208.564 96.72 208.468 96.96 208.276 97.152ZM210.18 97.456C209.588 97.456 209.14 97.008 209.14 96.432C209.14 95.84 209.556 95.424 210.18 95.424C210.74 95.424 211.172 95.84 211.172 96.432C211.172 97.008 210.74 97.456 210.18 97.456ZM213.316 104.304C213.524 104.304 213.636 104.608 213.636 105.2C213.636 105.728 213.524 106 213.316 106C211.892 106 210.98 105.776 210.548 105.312C209.876 105.632 209.156 105.792 208.372 105.792C207.332 105.792 206.484 105.52 205.812 104.992C205.124 104.464 204.788 103.712 204.788 102.736C204.788 101.76 205.14 100.944 205.86 100.288C206.564 99.632 207.572 99.312 208.884 99.312H211.924V102.912C211.924 103.984 212.244 104.304 213.316 104.304ZM209.94 103.776V101.008H208.596C207.444 101.008 206.692 101.568 206.692 102.576C206.692 103.552 207.332 104.032 208.628 104.032C209.188 104.032 209.62 103.952 209.94 103.776ZM215.742 96.288H217.438V97.408H213.918V96.288H214.59C214.43 96 214.35 95.696 214.35 95.376C214.35 94.432 215.086 93.792 216.19 93.792C216.494 93.792 216.846 93.84 217.246 93.92L217.038 95.008C216.43 94.848 215.518 94.88 215.518 95.616C215.518 95.824 215.598 96.048 215.742 96.288ZM218.59 104.304C218.798 104.304 218.91 104.608 218.91 105.2C218.91 105.728 218.798 106 218.59 106C217.454 106 216.67 105.68 216.238 105.04C215.71 105.68 214.75 106 213.358 106H213.022V104.304H213.342C214.622 104.304 214.99 103.856 214.99 102.432V99.312H216.878V102.688C216.878 103.76 217.454 104.304 218.59 104.304ZM225.434 96.56C224.858 96.56 224.426 96.112 224.426 95.52C224.426 94.944 224.858 94.496 225.434 94.496C226.01 94.496 226.442 94.944 226.442 95.52C226.442 96.112 226.026 96.56 225.434 96.56ZM224.074 98.736C223.498 98.736 223.05 98.288 223.05 97.696C223.05 97.12 223.498 96.688 224.074 96.688C224.666 96.688 225.082 97.104 225.082 97.696C225.082 98.288 224.666 98.736 224.074 98.736ZM225.962 98.432C225.322 97.84 225.754 96.608 226.698 96.688C227.274 96.688 227.69 97.12 227.69 97.696C227.69 98.288 227.258 98.736 226.698 98.736C226.394 98.736 226.154 98.64 225.962 98.432ZM228.954 102.672V99.312H230.842V103.232C230.842 104.944 229.658 106 227.85 106C226.938 106 226.218 105.76 225.69 105.264C225.13 105.76 224.362 106 223.386 106C222.314 106 221.562 105.744 221.114 105.248C220.618 105.744 219.786 106 218.65 106H218.298V104.304H218.65C219.658 104.304 220.01 103.888 220.01 102.72V100.48H221.898V103.232C221.898 103.952 222.314 104.304 223.146 104.304C224.122 104.304 224.474 103.888 224.474 102.72V100.48H226.362V103.232C226.362 103.952 226.794 104.304 227.642 104.304C228.666 104.304 228.954 103.84 228.954 102.672ZM236.12 106C233.56 106 232.568 105.072 232.568 103.008V93.904H234.456V102.96C234.456 103.904 234.952 104.304 236.12 104.304C236.328 104.304 236.44 104.608 236.44 105.2C236.44 105.728 236.328 106 236.12 106ZM239.115 97.168C238.555 97.792 237.275 97.328 237.371 96.432C237.275 95.52 238.555 95.104 239.115 95.696C239.483 96.08 239.483 96.784 239.115 97.168ZM241.051 104.304C241.259 104.304 241.371 104.608 241.371 105.2C241.371 105.728 241.259 106 241.051 106C239.915 106 239.131 105.68 238.699 105.04C238.171 105.68 237.227 106 235.835 106V104.304C237.067 104.304 237.451 103.888 237.451 102.432V99.312H239.339V102.688C239.339 103.76 239.915 104.304 241.051 104.304ZM240.768 106V104.304C242.032 104.304 242.336 103.888 242.336 102.432V93.904H244.224V102.832C244.224 105.152 243.152 106 240.768 106ZM247.941 106H246.053V93.904H247.941V106ZM260.606 104.304H262.158C262.366 104.304 262.478 104.608 262.478 105.2C262.478 105.728 262.366 106 262.158 106H260.766C259.47 106 258.318 105.84 257.326 105.536C255.854 106 255.294 106.688 255.294 107.328C255.294 108.048 255.854 108.416 256.974 108.416C257.47 108.416 257.902 108.368 258.27 108.288L258.59 109.904C258.11 110.08 257.55 110.16 256.91 110.16C254.718 110.16 253.358 109.216 253.358 107.472C253.358 106.128 254.222 105.12 255.966 104.432C255.39 103.552 254.67 102.704 253.79 101.888C253.886 101.072 254.014 100.48 254.174 100.08C255.39 99.456 256.606 99.136 257.822 99.136C259.806 99.136 261.054 100.016 261.054 101.504C261.054 102.464 260.606 103.392 259.694 104.272C260.158 104.288 260.462 104.304 260.606 104.304ZM255.582 101.232L255.566 101.296C256.382 102.032 257.07 102.864 257.662 103.776C258.574 103.264 259.15 102.512 259.15 101.936C259.15 101.344 258.574 100.88 257.47 100.88C256.798 100.88 256.174 100.992 255.582 101.232ZM262.209 106H261.873V104.304H262.193C263.473 104.304 263.841 103.856 263.841 102.432V99.312H265.729V102.688C265.729 105.104 264.689 106 262.209 106ZM262.881 109.344C262.305 109.344 261.857 108.912 261.857 108.336C261.857 107.744 262.305 107.296 262.881 107.296C263.473 107.296 263.889 107.744 263.889 108.336C263.889 108.912 263.473 109.344 262.881 109.344ZM265.505 109.344C264.913 109.344 264.465 108.912 264.465 108.336C264.465 107.744 264.913 107.296 265.505 107.296C266.065 107.296 266.497 107.744 266.497 108.336C266.497 108.912 266.065 109.344 265.505 109.344ZM267.123 108.928L266.835 107.296C268.323 107.088 268.883 106.592 268.883 105.264V99.312H270.771V104.88C270.771 107.456 269.635 108.752 267.123 108.928ZM276.143 106C273.583 106 272.591 105.072 272.591 103.008V93.904H274.479V102.96C274.479 103.904 274.975 104.304 276.143 104.304C276.351 104.304 276.463 104.608 276.463 105.2C276.463 105.728 276.351 106 276.143 106ZM282.994 96.56C282.418 96.56 281.986 96.112 281.986 95.52C281.986 94.944 282.418 94.496 282.994 94.496C283.57 94.496 284.002 94.944 284.002 95.52C284.002 96.112 283.586 96.56 282.994 96.56ZM281.634 98.736C281.058 98.736 280.61 98.288 280.61 97.696C280.61 97.12 281.058 96.688 281.634 96.688C282.226 96.688 282.642 97.104 282.642 97.696C282.642 98.288 282.226 98.736 281.634 98.736ZM283.522 98.432C282.882 97.84 283.314 96.608 284.258 96.688C284.834 96.688 285.25 97.12 285.25 97.696C285.25 98.288 284.818 98.736 284.258 98.736C283.954 98.736 283.714 98.64 283.522 98.432ZM290.114 104.304C290.322 104.304 290.434 104.608 290.434 105.2C290.434 105.728 290.322 106 290.114 106C289.01 106 288.226 105.68 287.778 105.056C287.25 105.68 286.45 106 285.41 106C284.498 106 283.778 105.76 283.25 105.264C282.69 105.76 281.922 106 280.946 106C279.874 106 279.122 105.744 278.674 105.248C278.178 105.744 277.346 106 276.21 106H275.858V104.304H276.21C277.218 104.304 277.57 103.888 277.57 102.72V100.48H279.458V103.232C279.458 103.952 279.874 104.304 280.706 104.304C281.682 104.304 282.034 103.888 282.034 102.72V100.48H283.922V103.232C283.922 103.952 284.354 104.304 285.202 104.304C286.226 104.304 286.514 103.84 286.514 102.672V99.312H288.402V102.688C288.402 103.76 288.978 104.304 290.114 104.304ZM297.95 104.304H299.054C299.262 104.304 299.374 104.608 299.374 105.2C299.374 105.728 299.262 106 299.054 106H297.054C296.35 106.688 295.358 107.024 294.062 107.024H292.718C292.286 106.72 291.934 106.368 291.662 106H289.822V104.304H290.894C290.846 103.984 290.83 103.728 290.83 103.536C290.83 102.464 291.182 101.6 291.886 100.912C292.59 100.24 293.502 99.904 294.606 99.904C295.694 99.904 296.542 100.24 297.134 100.912C297.726 101.584 298.03 102.448 298.03 103.488C298.03 103.744 297.998 104.016 297.95 104.304ZM293.31 105.328H294.19C295.518 105.328 296.142 104.512 296.142 103.408C296.142 102.384 295.534 101.648 294.494 101.648C293.406 101.648 292.718 102.384 292.718 103.584C292.718 104.224 292.91 104.8 293.31 105.328ZM298.771 106V104.304C300.035 104.304 300.339 103.888 300.339 102.432V93.904H302.227V102.832C302.227 105.152 301.155 106 298.771 106ZM305.944 106H304.056V93.904H305.944V106Z" fill="white"/>
<rect x="8.5" y="8.5" width="310" height="136" rx="3.5" stroke="white"/>
<path d="M123.444 106.56C123.275 105.183 121.977 104.234 120.613 104.489L70.2795 113.91C67.756 114.382 66.0181 116.529 66.3 118.826C66.582 121.122 64.8441 123.269 62.3205 123.741L56.9276 124.751C54.5362 125.198 52.2783 123.731 52.0111 121.554C51.7438 119.378 49.4845 117.909 47.0945 118.358L35.9988 120.435C33.4441 120.914 31.6837 123.088 31.9693 125.414C32.2548 127.739 30.4944 129.914 27.9385 130.392L12.1188 133.353C10.8708 133.586 10.0185 134.75 10.1733 136.011L10.8781 141.751C11.0472 143.129 12.3446 144.078 13.7091 143.823L31.9669 140.405C34.5217 139.927 36.2809 137.754 35.9956 135.429C35.7102 133.105 37.4695 130.932 40.0242 130.454L45.548 129.419C47.9393 128.971 50.1974 130.439 50.4646 132.616C50.7318 134.792 52.9911 136.261 55.3812 135.813L66.5333 133.724C69.0568 133.252 70.7947 131.105 70.5128 128.809C70.2308 126.513 71.9687 124.365 74.4923 123.893L118.934 115.571C122.024 114.993 124.154 112.362 123.808 109.549L123.441 106.561L123.444 106.56Z" fill="white" fill-opacity="0.1"/>
<path d="M60.9412 142.514L59.4041 144.766C58.8592 145.562 57.7736 145.766 56.9771 145.224L54.7317 143.688C53.9457 143.151 52.8748 143.345 52.3257 144.117C52.316 144.128 52.3087 144.138 52.3003 144.15L51.6282 145.141L50.7587 146.415C50.2529 147.159 49.2672 147.387 48.4921 146.969C48.4426 146.925 48.391 146.885 48.3346 146.847L46.0844 145.312C45.5174 144.927 45.2517 144.264 45.3385 143.63C45.3438 143.593 45.3519 143.559 45.3585 143.522C45.4045 143.306 45.492 143.099 45.6232 142.906L47.1648 140.651C47.1921 140.614 47.2143 140.574 47.239 140.535C47.2399 140.533 47.241 140.531 47.2419 140.529C47.7767 139.861 48.7218 139.682 49.4639 140.102C49.5075 140.128 49.5515 140.156 49.593 140.184L51.8314 141.722C52.6285 142.27 53.7189 142.064 54.2624 141.267L55.807 139.007C56.3505 138.209 57.4374 138.005 58.234 138.549L60.4858 140.086C61.2801 140.631 61.486 141.718 60.9412 142.514Z" fill="white" fill-opacity="0.1"/>
<path d="M48.3436 146.918C48.3988 146.957 48.4516 146.997 48.5012 147.04C48.4471 147.01 48.3942 146.979 48.3418 146.943L46.0899 145.404C45.5173 145.014 45.2504 144.341 45.3486 143.7C45.2607 144.335 45.5275 144.997 46.0945 145.382L48.3436 146.918Z" fill="white" fill-opacity="0.1"/>
<path d="M52.3095 144.222C52.3177 144.208 52.3251 144.199 52.3348 144.188C52.3269 144.204 52.3178 144.22 52.3061 144.234L51.6374 145.212L52.3095 144.222Z" fill="white" fill-opacity="0.1"/>
<path d="M78.8863 139.08L77.3492 141.332C76.8043 142.127 75.7186 142.332 74.9222 141.789L72.6768 140.254C71.8908 139.717 70.8199 139.911 70.2708 140.682C70.261 140.693 70.2538 140.704 70.2454 140.716L69.5733 141.707L68.7038 142.981C68.198 143.725 67.2123 143.953 66.4372 143.534C66.3877 143.491 66.336 143.451 66.2797 143.412L64.0295 141.877C63.4625 141.492 63.1968 140.829 63.2836 140.196C63.2888 140.158 63.2969 140.124 63.3035 140.088C63.3495 139.872 63.4371 139.665 63.5682 139.472L65.1098 137.217C65.1372 137.179 65.1593 137.14 65.1841 137.101C65.185 137.098 65.186 137.097 65.187 137.094C65.7218 136.427 66.6668 136.248 67.4089 136.668C67.4526 136.693 67.4965 136.721 67.5381 136.749L69.7765 138.288C70.5735 138.835 71.664 138.63 72.2074 137.832L73.7521 135.572C74.2955 134.774 75.3825 134.571 76.1791 135.114L78.4308 136.651C79.2263 137.196 79.4312 138.284 78.8863 139.08Z" fill="white" fill-opacity="0.1"/>
<path d="M66.2865 143.468C66.3416 143.506 66.3945 143.547 66.444 143.59C66.3899 143.56 66.3371 143.529 66.2846 143.493L64.0328 141.954C63.4602 141.564 63.1933 140.891 63.2915 140.25C63.2036 140.885 63.4703 141.547 64.0374 141.932L66.2865 143.468Z" fill="white" fill-opacity="0.1"/>
<path d="M70.2522 140.772C70.2604 140.758 70.2679 140.749 70.2776 140.738C70.2697 140.753 70.2606 140.769 70.2489 140.784L69.5801 141.762L70.2522 140.772Z" fill="white" fill-opacity="0.1"/>
<path d="M123.444 73.9742C123.275 72.5967 121.977 71.6477 120.613 71.9025L70.2795 81.3239C67.756 81.796 66.0181 83.9433 66.3 86.2396C66.582 88.5358 64.8441 90.6832 62.3205 91.1552L56.9276 92.1651C54.5362 92.6123 52.2783 91.1448 52.0111 88.9684C51.7438 86.792 49.4845 85.3234 47.0945 85.7717L35.9988 87.8492C33.4441 88.3275 31.6837 90.5022 31.9693 92.8275C32.2548 95.1528 30.4944 97.3275 27.9385 97.8059L12.1188 100.767C10.8708 101 10.0185 102.164 10.1733 103.425L10.8781 109.165C11.0472 110.543 12.3446 111.492 13.7091 111.237L31.9669 107.819C34.5217 107.341 36.2809 105.168 35.9956 102.843C35.7102 100.519 37.4695 98.346 40.0242 97.8677L45.548 96.8331C47.9393 96.3847 50.1974 97.8534 50.4646 100.03C50.7318 102.206 52.9911 103.675 55.3812 103.227L66.5333 101.138C69.0568 100.666 70.7947 98.519 70.5128 96.2228C70.2308 93.9266 71.9687 91.7792 74.4923 91.3072L118.934 82.9851C122.024 82.4066 124.154 79.7762 123.808 76.9631L123.441 73.9745L123.444 73.9742Z" fill="white" fill-opacity="0.1"/>
<path d="M60.9412 109.928L59.4041 112.18C58.8592 112.976 57.7736 113.18 56.9771 112.638L54.7317 111.102C53.9457 110.565 52.8748 110.759 52.3257 111.531C52.316 111.542 52.3087 111.552 52.3003 111.564L51.6282 112.555L50.7587 113.829C50.2529 114.573 49.2672 114.801 48.4921 114.382C48.4426 114.339 48.391 114.299 48.3346 114.26L46.0844 112.726C45.5174 112.341 45.2517 111.678 45.3385 111.044C45.3438 111.007 45.3519 110.973 45.3585 110.936C45.4045 110.72 45.492 110.513 45.6232 110.32L47.1648 108.065C47.1921 108.027 47.2143 107.988 47.239 107.949C47.2399 107.947 47.241 107.945 47.2419 107.943C47.7767 107.275 48.7218 107.096 49.4639 107.516C49.5075 107.542 49.5515 107.569 49.593 107.598L51.8314 109.136C52.6285 109.683 53.7189 109.478 54.2624 108.681L55.807 106.42C56.3505 105.623 57.4374 105.419 58.234 105.963L60.4858 107.5C61.2801 108.045 61.486 109.132 60.9412 109.928Z" fill="white" fill-opacity="0.1"/>
<path d="M48.3436 114.332C48.3988 114.37 48.4516 114.411 48.5012 114.454C48.4471 114.424 48.3942 114.393 48.3418 114.357L46.0899 112.818C45.5173 112.428 45.2504 111.755 45.3486 111.114C45.2607 111.749 45.5275 112.411 46.0945 112.796L48.3436 114.332Z" fill="white" fill-opacity="0.1"/>
<path d="M52.3095 111.636C52.3177 111.622 52.3251 111.613 52.3348 111.602C52.3269 111.618 52.3178 111.633 52.3061 111.648L51.6374 112.626L52.3095 111.636Z" fill="white" fill-opacity="0.1"/>
<path d="M78.8863 106.494L77.3492 108.746C76.8043 109.541 75.7186 109.746 74.9222 109.203L72.6768 107.668C71.8908 107.13 70.8199 107.325 70.2708 108.096C70.261 108.107 70.2538 108.118 70.2454 108.13L69.5733 109.12L68.7038 110.394C68.198 111.139 67.2123 111.366 66.4372 110.948C66.3877 110.905 66.336 110.865 66.2797 110.826L64.0295 109.291C63.4625 108.906 63.1968 108.243 63.2836 107.61C63.2888 107.572 63.2969 107.538 63.3035 107.502C63.3495 107.286 63.4371 107.079 63.5682 106.886L65.1098 104.631C65.1372 104.593 65.1593 104.553 65.1841 104.515C65.185 104.512 65.186 104.511 65.187 104.508C65.7218 103.841 66.6668 103.662 67.4089 104.082C67.4526 104.107 67.4965 104.135 67.5381 104.163L69.7765 105.702C70.5735 106.249 71.664 106.044 72.2074 105.246L73.7521 102.986C74.2955 102.188 75.3825 101.985 76.1791 102.528L78.4308 104.065C79.2263 104.61 79.4312 105.698 78.8863 106.494Z" fill="white" fill-opacity="0.1"/>
<path d="M66.2865 110.882C66.3416 110.92 66.3945 110.961 66.444 111.004C66.3899 110.973 66.3371 110.943 66.2846 110.907L64.0328 109.368C63.4602 108.978 63.1933 108.305 63.2915 107.664C63.2036 108.299 63.4703 108.961 64.0374 109.346L66.2865 110.882Z" fill="white" fill-opacity="0.1"/>
<path d="M70.2522 108.186C70.2604 108.172 70.2679 108.163 70.2776 108.152C70.2697 108.167 70.2606 108.183 70.2489 108.198L69.5801 109.176L70.2522 108.186Z" fill="white" fill-opacity="0.1"/>
<path d="M123.444 41.3881C123.275 40.0106 121.977 39.0616 120.613 39.3164L70.2795 48.7378C67.756 49.2099 66.0181 51.3572 66.3 53.6535C66.582 55.9497 64.8441 58.0971 62.3205 58.5691L56.9276 59.579C54.5362 60.0262 52.2783 58.5587 52.0111 56.3823C51.7438 54.2059 49.4845 52.7373 47.0945 53.1856L35.9988 55.2631C33.4441 55.7414 31.6837 57.9161 31.9693 60.2414C32.2548 62.5667 30.4944 64.7414 27.9385 65.2198L12.1188 68.1808C10.8708 68.4139 10.0185 69.5777 10.1733 70.839L10.8781 76.579C11.0472 77.9565 12.3446 78.9055 13.7091 78.6507L31.9669 75.2331C34.5217 74.7547 36.2809 72.5814 35.9956 70.2573C35.7102 67.9333 37.4695 65.7599 40.0242 65.2816L45.548 64.2471C47.9393 63.7986 50.1974 65.2673 50.4646 67.4437C50.7318 69.6201 52.9911 71.0887 55.3812 70.6404L66.5333 68.5523C69.0568 68.0803 70.7947 65.9329 70.5128 63.6367C70.2308 61.3405 71.9687 59.1931 74.4923 58.7211L118.934 50.399C122.024 49.8205 124.154 47.1901 123.808 44.377L123.441 41.3884L123.444 41.3881Z" fill="white" fill-opacity="0.1"/>
<path d="M60.9412 77.3423L59.4041 79.594C58.8592 80.3895 57.7736 80.5941 56.9771 80.0517L54.7317 78.5163C53.9457 77.9788 52.8748 78.173 52.3257 78.9444C52.316 78.9555 52.3087 78.9662 52.3003 78.9783L51.6282 79.9688L50.7587 81.2428C50.2529 81.9869 49.2672 82.2148 48.4921 81.7964C48.4426 81.7533 48.391 81.7129 48.3346 81.6744L46.0844 80.1396C45.5174 79.7546 45.2517 79.0918 45.3385 78.4581C45.3438 78.4206 45.3519 78.3865 45.3585 78.35C45.4045 78.1343 45.492 77.9269 45.6232 77.7339L47.1648 75.4792C47.1921 75.4414 47.2143 75.4018 47.239 75.3632C47.2399 75.3606 47.241 75.3592 47.2419 75.3567C47.7767 74.6889 48.7218 74.5102 49.4639 74.9302C49.5075 74.9556 49.5515 74.9834 49.593 75.0115L51.8314 76.5502C52.6285 77.0974 53.7189 76.8922 54.2624 76.0944L55.807 73.8344C56.3505 73.0366 57.4374 72.8331 58.234 73.3767L60.4858 74.9138C61.2801 75.4588 61.486 76.5455 60.9412 77.3423Z" fill="white" fill-opacity="0.1"/>
<path d="M48.3436 81.7457C48.3988 81.7844 48.4516 81.8246 48.5012 81.8676C48.4471 81.8374 48.3942 81.8071 48.3418 81.7705L46.0899 80.2322C45.5173 79.8417 45.2504 79.1692 45.3486 78.5281C45.2607 79.1631 45.5275 79.8245 46.0945 80.2095L48.3436 81.7457Z" fill="white" fill-opacity="0.1"/>
<path d="M52.3095 79.0496C52.3177 79.0363 52.3251 79.0268 52.3348 79.0158C52.3269 79.0315 52.3178 79.0474 52.3061 79.0623L51.6374 80.0402L52.3095 79.0496Z" fill="white" fill-opacity="0.1"/>
<path d="M78.8863 73.9078L77.3492 76.1595C76.8043 76.9551 75.7186 77.1596 74.9222 76.6173L72.6768 75.0819C71.8908 74.5444 70.8199 74.7385 70.2708 75.51C70.261 75.521 70.2538 75.5317 70.2454 75.5438L69.5733 76.5344L68.7038 77.8084C68.198 78.5524 67.2123 78.7804 66.4372 78.3619C66.3877 78.3189 66.336 78.2785 66.2797 78.24L64.0295 76.7051C63.4625 76.3201 63.1968 75.6573 63.2836 75.0237C63.2888 74.9862 63.2969 74.952 63.3035 74.9156C63.3495 74.6998 63.4371 74.4925 63.5682 74.2995L65.1098 72.0447C65.1372 72.007 65.1593 71.9674 65.1841 71.9287C65.185 71.9261 65.186 71.9248 65.187 71.9222C65.7218 71.2545 66.6668 71.0758 67.4089 71.4958C67.4526 71.5212 67.4965 71.5489 67.5381 71.577L69.7765 73.1157C70.5735 73.6629 71.664 73.4578 72.2074 72.66L73.7521 70.3999C74.2955 69.6021 75.3825 69.3986 76.1791 69.9422L78.4308 71.4793C79.2263 72.0242 79.4312 73.1123 78.8863 73.9078Z" fill="white" fill-opacity="0.1"/>
<path d="M66.2865 78.2956C66.3416 78.3343 66.3945 78.3745 66.444 78.4176C66.3899 78.3874 66.3371 78.357 66.2846 78.3204L64.0328 76.7821C63.4602 76.3917 63.1933 75.7192 63.2915 75.078C63.2036 75.713 63.4703 76.3744 64.0374 76.7594L66.2865 78.2956Z" fill="white" fill-opacity="0.1"/>
<path d="M70.2522 75.5994C70.2604 75.5861 70.2679 75.5766 70.2776 75.5656C70.2697 75.5813 70.2606 75.5972 70.2489 75.6121L69.5801 76.59L70.2522 75.5994Z" fill="white" fill-opacity="0.1"/>
<rect width="56" height="24" transform="translate(7)" fill="#0073D1"/>
<path d="M55.8359 6.9506C55.8359 6.40229 55.3729 5.96768 54.8256 6.00189L34.6342 7.27294C33.6219 7.33654 32.837 8.09493 32.837 9.00895C32.837 9.92297 32.0521 10.6814 31.0398 10.745L28.8764 10.8813C27.9171 10.9415 27.1024 10.2574 27.1024 9.39104C27.1024 8.52472 26.2871 7.84005 25.3283 7.90076L20.8772 8.18118C19.8523 8.24574 19.0573 9.01377 19.0573 9.93936C19.0573 10.8649 18.2623 11.633 17.237 11.6975L10.8909 12.097C10.3903 12.1283 10 12.5436 10 13.0457V15.3305C10 15.8788 10.463 16.3134 11.0104 16.2792L18.3346 15.8181C19.3594 15.7535 20.154 14.986 20.154 14.0609C20.154 13.1358 20.9485 12.3682 21.9733 12.3037L24.1892 12.1639C25.1486 12.1032 25.9633 12.7879 25.9633 13.6542C25.9633 14.5205 26.7786 15.2052 27.7374 15.1445L32.2111 14.8626C33.2234 14.799 34.0083 14.0406 34.0083 13.1266C34.0083 12.2126 34.7932 11.4542 35.8055 11.3906L53.6335 10.267C54.8732 10.1889 55.835 9.25998 55.835 8.14023V6.9506H55.8359Z" fill="white"/>
<path d="M29.5954 18.0401L28.8842 18.8491C28.6322 19.1348 28.1966 19.1628 27.9104 18.9117L27.1038 18.2015C26.8215 17.9529 26.3922 17.9775 26.1397 18.2536C26.1354 18.2574 26.132 18.2613 26.1281 18.2656L25.8169 18.6217L25.4146 19.0794C25.1804 19.3468 24.7829 19.3887 24.4991 19.1873C24.4818 19.1681 24.4634 19.1498 24.4432 19.1319L23.6347 18.4217C23.4309 18.2434 23.3586 17.9707 23.4232 17.7264C23.427 17.712 23.4319 17.699 23.4362 17.685C23.4646 17.6026 23.509 17.5255 23.5697 17.4561L24.2828 16.6462C24.2953 16.6327 24.3059 16.6182 24.3175 16.6043C24.3179 16.6033 24.3184 16.6028 24.3189 16.6019C24.5608 16.3658 24.94 16.3412 25.2108 16.5416C25.2267 16.5537 25.2426 16.5667 25.2575 16.5797L26.0612 17.2909C26.3474 17.5438 26.7849 17.5159 27.0364 17.2292L27.7509 16.4173C28.0024 16.1306 28.4385 16.1032 28.7247 16.3547L29.5337 17.0659C29.8189 17.3179 29.8474 17.7539 29.5954 18.0401Z" fill="white"/>
<path d="M24.443 19.1604C24.4627 19.1782 24.4815 19.1965 24.4989 19.2158C24.4791 19.2013 24.4598 19.1869 24.441 19.17L23.6321 18.4584C23.4263 18.2777 23.3541 18.0011 23.4234 17.7544C23.3584 17.9992 23.4311 18.2714 23.635 18.4497L24.443 19.1604Z" fill="white"/>
<path d="M26.1283 18.2942C26.1321 18.2894 26.1355 18.286 26.1398 18.2821C26.136 18.2879 26.1316 18.2937 26.1263 18.299L25.817 18.6502L26.1283 18.2942Z" fill="white"/>
<path d="M36.7973 17.5576L36.0861 18.3665C35.8341 18.6523 35.3985 18.6802 35.1123 18.4292L34.3057 17.719C34.0234 17.4704 33.5941 17.4949 33.3416 17.771C33.3373 17.7749 33.3339 17.7787 33.3301 17.7831L33.0188 18.1391L32.6165 18.5969C32.3823 18.8643 31.9848 18.9062 31.701 18.7048C31.6837 18.6855 31.6653 18.6672 31.6451 18.6494L30.8366 17.9392C30.6328 17.7609 30.5605 17.4882 30.6251 17.2439C30.6289 17.2294 30.6338 17.2164 30.6381 17.2025C30.6665 17.1201 30.7109 17.043 30.7716 16.9736L31.4847 16.1636C31.4972 16.1502 31.5078 16.1357 31.5194 16.1217C31.5198 16.1208 31.5203 16.1203 31.5208 16.1193C31.7627 15.8832 32.1419 15.8587 32.4127 16.0591C32.4286 16.0711 32.4445 16.0841 32.4594 16.0972L33.2631 16.8083C33.5493 17.0613 33.9868 17.0333 34.2383 16.7467L34.9528 15.9348C35.2043 15.6481 35.6404 15.6206 35.9266 15.8721L36.7356 16.5833C37.0213 16.8353 37.0493 17.2718 36.7973 17.5576Z" fill="white"/>
<path d="M31.645 18.6715C31.6648 18.6893 31.6835 18.7076 31.7009 18.7269C31.6811 18.7124 31.6619 18.698 31.6431 18.6811L30.8341 17.9695C30.6284 17.7888 30.5561 17.5122 30.6255 17.2655C30.5604 17.5103 30.6332 17.7825 30.837 17.9608L31.645 18.6715Z" fill="white"/>
<path d="M33.3303 17.8052C33.3342 17.8003 33.3375 17.797 33.3419 17.7931C33.338 17.7989 33.3337 17.8047 33.3284 17.81L33.019 18.1612L33.3303 17.8052Z" fill="white"/>
</svg>
