<svg width="152" height="44" viewBox="0 0 152 44" fill="none" xmlns="http://www.w3.org/2000/svg">
<path d="M151.358 3.13905C151.358 1.32842 149.829 -0.106725 148.022 0.00624051L81.3464 4.20347C78.0036 4.41349 75.4117 6.91783 75.4117 9.93608C75.4117 12.9543 72.8199 15.4587 69.4771 15.6687L62.3332 16.119C59.1654 16.3178 56.4749 14.0585 56.4749 11.1978C56.4749 8.33706 53.7828 6.07615 50.6166 6.27663L35.9183 7.20263C32.5341 7.41583 29.9089 9.95199 29.9089 13.0084C29.9089 16.0649 27.2836 18.601 23.8978 18.8142L2.94189 20.1332C1.28877 20.2366 0 21.6081 0 23.266V30.8109C0 32.6215 1.52902 34.0566 3.33647 33.9437L27.5223 32.421C30.9065 32.2078 33.5301 29.6733 33.5301 26.6184C33.5301 23.5636 36.1538 21.029 39.538 20.8158L46.8553 20.3544C50.0231 20.1539 52.7136 22.4148 52.7136 25.2755C52.7136 28.1363 55.4057 30.3972 58.5719 30.1967L73.3449 29.2659C76.6878 29.0559 79.2796 26.5516 79.2796 23.5333C79.2796 20.5151 81.8715 18.0107 85.2143 17.8007L144.085 14.0903C148.179 13.8326 151.355 10.765 151.355 7.06739V3.13905H151.358Z" fill="white"/>
<path d="M64.7069 39.759L62.3585 42.4304C61.5264 43.3739 60.088 43.4662 59.1429 42.6372L56.4795 40.292C55.5471 39.471 54.1295 39.5522 53.2958 40.4638C53.2814 40.4766 53.2703 40.4893 53.2576 40.5036L52.2298 41.6794L50.9012 43.1909C50.128 44.074 48.8153 44.2124 47.8782 43.5473C47.8209 43.4837 47.7605 43.4232 47.6936 43.3643L45.0238 41.0191C44.3508 40.4304 44.1121 39.5299 44.3253 38.7232C44.3381 38.6755 44.354 38.6325 44.3683 38.5864C44.4622 38.3143 44.6086 38.0597 44.809 37.8306L47.1638 35.156C47.2052 35.1115 47.2402 35.0637 47.2784 35.0176C47.28 35.0144 47.2815 35.0128 47.2831 35.0097C48.0819 34.23 49.334 34.1489 50.2282 34.8108C50.2807 34.8505 50.3332 34.8935 50.3825 34.9365L53.0364 37.2849C53.9815 38.1202 55.4262 38.0279 56.2568 37.0812L58.6163 34.4003C59.4468 33.4536 60.8867 33.3629 61.8318 34.1934L64.5032 36.5419C65.4452 37.374 65.539 38.8139 64.7069 39.759Z" fill="white"/>
<path d="M47.6938 43.4583C47.7591 43.5171 47.8211 43.5776 47.8784 43.6412C47.8132 43.5935 47.7495 43.5458 47.6875 43.4901L45.0161 41.1401C44.3367 40.5434 44.098 39.6302 44.3271 38.8156C44.1124 39.6238 44.3526 40.5228 45.0256 41.1114L47.6938 43.4583Z" fill="white"/>
<path d="M53.2577 40.5975C53.2704 40.5816 53.2815 40.5705 53.2958 40.5577C53.2831 40.5768 53.2688 40.5959 53.2513 40.6134L52.2298 41.7733L53.2577 40.5975Z" fill="white"/>
<path d="M88.4903 38.1647L86.1419 40.8361C85.3098 41.7796 83.8715 41.8719 82.9264 41.043L80.2629 38.6977C79.3306 37.8768 77.9129 37.9579 77.0792 38.8696C77.0649 38.8823 77.0537 38.8951 77.041 38.9094L76.0132 40.0852L74.6846 41.5967C73.9114 42.4797 72.5988 42.6181 71.6616 41.9531C71.6043 41.8894 71.5439 41.829 71.477 41.7701L68.8073 39.4249C68.1342 38.8362 67.8956 37.9356 68.1088 37.129C68.1215 37.0812 68.1374 37.0383 68.1517 36.9921C68.2456 36.7201 68.392 36.4655 68.5924 36.2364L70.9472 33.5618C70.9886 33.5172 71.0236 33.4695 71.0618 33.4234C71.0634 33.4202 71.065 33.4186 71.0666 33.4154C71.8653 32.6358 73.1174 32.5546 74.0116 33.2165C74.0641 33.2563 74.1166 33.2993 74.166 33.3422L76.8199 35.6906C77.765 36.526 79.2096 36.4337 80.0402 35.487L82.3997 32.806C83.2303 31.8594 84.6702 31.7687 85.6153 32.5992L88.2867 34.9476C89.2302 35.7797 89.3225 37.2212 88.4903 38.1647Z" fill="white"/>
<path d="M71.4772 41.8433C71.5424 41.9021 71.6044 41.9626 71.6617 42.0263C71.5965 41.9785 71.5329 41.9308 71.4708 41.8751L68.7994 39.5251C68.12 38.9285 67.8814 38.0152 68.1105 37.2006C67.8957 38.0088 68.1359 38.9078 68.8089 39.4965L71.4772 41.8433Z" fill="white"/>
<path d="M77.0411 38.9825C77.0539 38.9666 77.065 38.9555 77.0793 38.9427C77.0666 38.9618 77.0523 38.9809 77.0348 38.9984L76.0133 40.1583L77.0411 38.9825Z" fill="white"/>
</svg>
