<svg width="16" height="16" viewBox="0 0 16 16" fill="none" xmlns="http://www.w3.org/2000/svg">
<path d="M8.70003 10.8333H7.44672C6.56005 10.8333 5.83337 10.0866 5.83337 9.16664C5.83337 8.8933 6.06004 8.66664 6.33337 8.66664C6.60671 8.66664 6.83337 8.8933 6.83337 9.16664C6.83337 9.5333 7.10672 9.8333 7.44672 9.8333H8.70003C8.96003 9.8333 9.16671 9.59997 9.16671 9.3133C9.16671 8.9533 9.06671 8.89997 8.84005 8.81997L6.83337 8.11996C6.40671 7.96663 5.83337 7.65997 5.83337 6.67997C5.83337 5.84664 6.49338 5.15997 7.30005 5.15997H8.55337C9.44003 5.15997 10.1667 5.90664 10.1667 6.82664C10.1667 7.09997 9.94004 7.32664 9.66671 7.32664C9.39337 7.32664 9.16671 7.09997 9.16671 6.82664C9.16671 6.45997 8.89337 6.15997 8.55337 6.15997H7.30005C7.04005 6.15997 6.83337 6.39331 6.83337 6.67997C6.83337 7.03997 6.93337 7.0933 7.16003 7.1733L9.16671 7.8733C9.59337 8.02663 10.1667 8.3333 10.1667 9.3133C10.1667 10.1533 9.5067 10.8333 8.70003 10.8333Z" fill="#6A6A6A"/>
<path d="M8 11.5C7.72667 11.5 7.5 11.2733 7.5 11V5C7.5 4.72667 7.72667 4.5 8 4.5C8.27333 4.5 8.5 4.72667 8.5 5V11C8.5 11.2733 8.27333 11.5 8 11.5Z" fill="#6A6A6A"/>
<path d="M8.00004 15.1666C4.04671 15.1666 0.833374 11.9533 0.833374 7.99998C0.833374 4.04665 4.04671 0.833313 8.00004 0.833313C8.27337 0.833313 8.50004 1.05998 8.50004 1.33331C8.50004 1.60665 8.27337 1.83331 8.00004 1.83331C4.60004 1.83331 1.83337 4.59998 1.83337 7.99998C1.83337 11.4 4.60004 14.1666 8.00004 14.1666C11.4 14.1666 14.1667 11.4 14.1667 7.99998C14.1667 7.72665 14.3934 7.49998 14.6667 7.49998C14.94 7.49998 15.1667 7.72665 15.1667 7.99998C15.1667 11.9533 11.9534 15.1666 8.00004 15.1666Z" fill="#6A6A6A"/>
<path d="M14.6667 4.49998C14.3933 4.49998 14.1667 4.27331 14.1667 3.99998V1.83331H12C11.7267 1.83331 11.5 1.60665 11.5 1.33331C11.5 1.05998 11.7267 0.833313 12 0.833313H14.6667C14.94 0.833313 15.1667 1.05998 15.1667 1.33331V3.99998C15.1667 4.27331 14.94 4.49998 14.6667 4.49998Z" fill="#6A6A6A"/>
<path d="M11.3333 5.16669C11.2066 5.16669 11.08 5.12002 10.98 5.02002C10.7866 4.82669 10.7866 4.50669 10.98 4.31336L14.3133 0.980022C14.5066 0.786689 14.8266 0.786689 15.02 0.980022C15.2133 1.17336 15.2133 1.49335 15.02 1.68669L11.6866 5.02002C11.5866 5.12002 11.46 5.16669 11.3333 5.16669Z" fill="#6A6A6A"/>
</svg>
