<svg width="16" height="16" viewBox="0 0 16 16" fill="none" xmlns="http://www.w3.org/2000/svg">
<path d="M5.71318 10.68C5.58651 10.68 5.45984 10.6333 5.35984 10.5333C5.16651 10.34 5.16651 10.02 5.35984 9.82666L9.7265 5.46C9.91984 5.26667 10.2398 5.26667 10.4332 5.46C10.6265 5.65334 10.6265 5.97333 10.4332 6.16667L6.06651 10.5333C5.96651 10.6333 5.83984 10.68 5.71318 10.68Z" fill="#6A6A6A"/>
<path d="M5.98663 7.40666C5.25997 7.40666 4.66663 6.81334 4.66663 6.08667C4.66663 5.36 5.25997 4.76666 5.98663 4.76666C6.7133 4.76666 7.30662 5.36 7.30662 6.08667C7.30662 6.81334 6.7133 7.40666 5.98663 7.40666ZM5.98663 5.77334C5.8133 5.77334 5.66663 5.91334 5.66663 6.09334C5.66663 6.27334 5.80663 6.41333 5.98663 6.41333C6.16663 6.41333 6.30662 6.27334 6.30662 6.09334C6.30662 5.91334 6.15997 5.77334 5.98663 5.77334Z" fill="#6A6A6A"/>
<path d="M10.3467 11.2267C9.62005 11.2267 9.02673 10.6333 9.02673 9.90666C9.02673 9.17999 9.62005 8.58667 10.3467 8.58667C11.0734 8.58667 11.6667 9.17999 11.6667 9.90666C11.6667 10.6333 11.0734 11.2267 10.3467 11.2267ZM10.3467 9.59334C10.1734 9.59334 10.0267 9.73333 10.0267 9.91333C10.0267 10.0933 10.1667 10.2333 10.3467 10.2333C10.5267 10.2333 10.6667 10.0933 10.6667 9.91333C10.6667 9.73333 10.5267 9.59334 10.3467 9.59334Z" fill="#6A6A6A"/>
<path d="M8.00004 15.1666C4.04671 15.1666 0.833374 11.9533 0.833374 7.99998C0.833374 4.04665 4.04671 0.833313 8.00004 0.833313C11.9534 0.833313 15.1667 4.04665 15.1667 7.99998C15.1667 11.9533 11.9534 15.1666 8.00004 15.1666ZM8.00004 1.83331C4.60004 1.83331 1.83337 4.59998 1.83337 7.99998C1.83337 11.4 4.60004 14.1666 8.00004 14.1666C11.4 14.1666 14.1667 11.4 14.1667 7.99998C14.1667 4.59998 11.4 1.83331 8.00004 1.83331Z" fill="#6A6A6A"/>
</svg>
